<svg xmlns="http://www.w3.org/2000/svg" xmlns:xlink="http://www.w3.org/1999/xlink" style="margin:auto;background:#7aceff;display:block;z-index:1;position:relative" width="1536" height="722" preserveAspectRatio="xMidYMid" viewBox="0 0 1536 722">
<g transform=""><g transform="translate(1105.76 532.92)">
  <animateTransform attributeName="transform" type="translate" keyTimes="0;1" values="-100 532.9196810881622;1536 532.9196810881622" dur="66.66666666666667s" repeatCount="indefinite" begin="-17.378918262063955s"></animateTransform>
  <path d="M84.717,33.597c0.791-2.503,1.186-5.138,1.186-7.773C85.903,11.594,74.308,0,60.079,0 c-9.881,0-18.445,5.534-22.793,13.702c-1.581-0.527-3.426-0.791-5.138-0.791c-9.486,0-17.128,7.642-17.128,17.128 c0,1.186,0.132,2.372,0.395,3.426C6.719,34.783,0,42.424,0,51.515C0,61.66,8.169,69.829,18.314,69.829h63.373 C91.831,69.829,100,61.66,100,51.515C99.868,42.556,93.281,35.046,84.717,33.597z" fill="#bddeff" transform="scale(0.7595000000000001)"></path>
</g><g transform="translate(1466.38 453.031)">
  <animateTransform attributeName="transform" type="translate" keyTimes="0;1" values="-100 453.03072210191937;1536 453.03072210191937" dur="66.66666666666667s" repeatCount="indefinite" begin="-32.07427085950008s"></animateTransform>
  <path d="M84.717,33.597c0.791-2.503,1.186-5.138,1.186-7.773C85.903,11.594,74.308,0,60.079,0 c-9.881,0-18.445,5.534-22.793,13.702c-1.581-0.527-3.426-0.791-5.138-0.791c-9.486,0-17.128,7.642-17.128,17.128 c0,1.186,0.132,2.372,0.395,3.426C6.719,34.783,0,42.424,0,51.515C0,61.66,8.169,69.829,18.314,69.829h63.373 C91.831,69.829,100,61.66,100,51.515C99.868,42.556,93.281,35.046,84.717,33.597z" fill="#bddeff" transform="scale(0.7595000000000001)"></path>
</g><g transform="translate(1353.2 615.079)">
  <animateTransform attributeName="transform" type="translate" keyTimes="0;1" values="-100 615.0787128341402;1536 615.0787128341402" dur="66.66666666666667s" repeatCount="indefinite" begin="-27.462089882050154s"></animateTransform>
  <path d="M84.717,33.597c0.791-2.503,1.186-5.138,1.186-7.773C85.903,11.594,74.308,0,60.079,0 c-9.881,0-18.445,5.534-22.793,13.702c-1.581-0.527-3.426-0.791-5.138-0.791c-9.486,0-17.128,7.642-17.128,17.128 c0,1.186,0.132,2.372,0.395,3.426C6.719,34.783,0,42.424,0,51.515C0,61.66,8.169,69.829,18.314,69.829h63.373 C91.831,69.829,100,61.66,100,51.515C99.868,42.556,93.281,35.046,84.717,33.597z" fill="#bddeff" transform="scale(0.7595000000000001)"></path>
</g><g transform="translate(1325.09 377.873)">
  <animateTransform attributeName="transform" type="translate" keyTimes="0;1" values="-100 377.8727366635035;1536 377.8727366635035" dur="66.66666666666667s" repeatCount="indefinite" begin="-26.316616952514373s"></animateTransform>
  <path d="M84.717,33.597c0.791-2.503,1.186-5.138,1.186-7.773C85.903,11.594,74.308,0,60.079,0 c-9.881,0-18.445,5.534-22.793,13.702c-1.581-0.527-3.426-0.791-5.138-0.791c-9.486,0-17.128,7.642-17.128,17.128 c0,1.186,0.132,2.372,0.395,3.426C6.719,34.783,0,42.424,0,51.515C0,61.66,8.169,69.829,18.314,69.829h63.373 C91.831,69.829,100,61.66,100,51.515C99.868,42.556,93.281,35.046,84.717,33.597z" fill="#bddeff" transform="scale(0.7595000000000001)"></path>
</g><g transform="translate(945.308 457.522)">
  <animateTransform attributeName="transform" type="translate" keyTimes="0;1" values="-100 457.52178912924944;1536 457.52178912924944" dur="66.66666666666667s" repeatCount="indefinite" begin="-10.840533622979454s"></animateTransform>
  <path d="M84.717,33.597c0.791-2.503,1.186-5.138,1.186-7.773C85.903,11.594,74.308,0,60.079,0 c-9.881,0-18.445,5.534-22.793,13.702c-1.581-0.527-3.426-0.791-5.138-0.791c-9.486,0-17.128,7.642-17.128,17.128 c0,1.186,0.132,2.372,0.395,3.426C6.719,34.783,0,42.424,0,51.515C0,61.66,8.169,69.829,18.314,69.829h63.373 C91.831,69.829,100,61.66,100,51.515C99.868,42.556,93.281,35.046,84.717,33.597z" fill="#bddeff" transform="scale(0.7595000000000001)"></path>
</g><g transform="translate(1414.24 639.337)">
  <animateTransform attributeName="transform" type="translate" keyTimes="0;1" values="-100 639.3365438420591;1536 639.3365438420591" dur="66.66666666666667s" repeatCount="indefinite" begin="-29.949366454010224s"></animateTransform>
  <path d="M84.717,33.597c0.791-2.503,1.186-5.138,1.186-7.773C85.903,11.594,74.308,0,60.079,0 c-9.881,0-18.445,5.534-22.793,13.702c-1.581-0.527-3.426-0.791-5.138-0.791c-9.486,0-17.128,7.642-17.128,17.128 c0,1.186,0.132,2.372,0.395,3.426C6.719,34.783,0,42.424,0,51.515C0,61.66,8.169,69.829,18.314,69.829h63.373 C91.831,69.829,100,61.66,100,51.515C99.868,42.556,93.281,35.046,84.717,33.597z" fill="#bddeff" transform="scale(0.7595000000000001)"></path>
</g><g transform="translate(1033.09 305.557)">
  <animateTransform attributeName="transform" type="translate" keyTimes="0;1" values="-100 305.55651937319726;1536 305.55651937319726" dur="66.66666666666667s" repeatCount="indefinite" begin="-14.417583256420116s"></animateTransform>
  <path d="M84.717,33.597c0.791-2.503,1.186-5.138,1.186-7.773C85.903,11.594,74.308,0,60.079,0 c-9.881,0-18.445,5.534-22.793,13.702c-1.581-0.527-3.426-0.791-5.138-0.791c-9.486,0-17.128,7.642-17.128,17.128 c0,1.186,0.132,2.372,0.395,3.426C6.719,34.783,0,42.424,0,51.515C0,61.66,8.169,69.829,18.314,69.829h63.373 C91.831,69.829,100,61.66,100,51.515C99.868,42.556,93.281,35.046,84.717,33.597z" fill="#bddeff" transform="scale(0.7595000000000001)"></path>
</g><g transform="translate(1144 219.176)">
  <animateTransform attributeName="transform" type="translate" keyTimes="0;1" values="-100 219.17604307179454;1536 219.17604307179454" dur="66.66666666666667s" repeatCount="indefinite" begin="-18.937275708031336s"></animateTransform>
  <path d="M84.717,33.597c0.791-2.503,1.186-5.138,1.186-7.773C85.903,11.594,74.308,0,60.079,0 c-9.881,0-18.445,5.534-22.793,13.702c-1.581-0.527-3.426-0.791-5.138-0.791c-9.486,0-17.128,7.642-17.128,17.128 c0,1.186,0.132,2.372,0.395,3.426C6.719,34.783,0,42.424,0,51.515C0,61.66,8.169,69.829,18.314,69.829h63.373 C91.831,69.829,100,61.66,100,51.515C99.868,42.556,93.281,35.046,84.717,33.597z" fill="#bddeff" transform="scale(0.7595000000000001)"></path>
</g><g transform="translate(798.919 433.318)">
  <animateTransform attributeName="transform" type="translate" keyTimes="0;1" values="-100 433.31751846088713;1536 433.31751846088713" dur="66.66666666666667s" repeatCount="indefinite" begin="-4.87523252007002s"></animateTransform>
  <path d="M84.717,33.597c0.791-2.503,1.186-5.138,1.186-7.773C85.903,11.594,74.308,0,60.079,0 c-9.881,0-18.445,5.534-22.793,13.702c-1.581-0.527-3.426-0.791-5.138-0.791c-9.486,0-17.128,7.642-17.128,17.128 c0,1.186,0.132,2.372,0.395,3.426C6.719,34.783,0,42.424,0,51.515C0,61.66,8.169,69.829,18.314,69.829h63.373 C91.831,69.829,100,61.66,100,51.515C99.868,42.556,93.281,35.046,84.717,33.597z" fill="#bddeff" transform="scale(0.7595000000000001)"></path>
</g><g transform="translate(759.357 167.097)">
  <animateTransform attributeName="transform" type="translate" keyTimes="0;1" values="-100 167.09734600595843;1536 167.09734600595843" dur="66.66666666666667s" repeatCount="indefinite" begin="-3.2630747081994946s"></animateTransform>
  <path d="M84.717,33.597c0.791-2.503,1.186-5.138,1.186-7.773C85.903,11.594,74.308,0,60.079,0 c-9.881,0-18.445,5.534-22.793,13.702c-1.581-0.527-3.426-0.791-5.138-0.791c-9.486,0-17.128,7.642-17.128,17.128 c0,1.186,0.132,2.372,0.395,3.426C6.719,34.783,0,42.424,0,51.515C0,61.66,8.169,69.829,18.314,69.829h63.373 C91.831,69.829,100,61.66,100,51.515C99.868,42.556,93.281,35.046,84.717,33.597z" fill="#bddeff" transform="scale(0.7595000000000001)"></path>
</g><g transform="translate(775.863 496.277)">
  <animateTransform attributeName="transform" type="translate" keyTimes="0;1" values="-100 496.2769418087957;1536 496.2769418087957" dur="66.66666666666667s" repeatCount="indefinite" begin="-3.935700596314407s"></animateTransform>
  <path d="M84.717,33.597c0.791-2.503,1.186-5.138,1.186-7.773C85.903,11.594,74.308,0,60.079,0 c-9.881,0-18.445,5.534-22.793,13.702c-1.581-0.527-3.426-0.791-5.138-0.791c-9.486,0-17.128,7.642-17.128,17.128 c0,1.186,0.132,2.372,0.395,3.426C6.719,34.783,0,42.424,0,51.515C0,61.66,8.169,69.829,18.314,69.829h63.373 C91.831,69.829,100,61.66,100,51.515C99.868,42.556,93.281,35.046,84.717,33.597z" fill="#bddeff" transform="scale(0.7595000000000001)"></path>
</g><g transform="translate(98.4166 489.156)">
  <animateTransform attributeName="transform" type="translate" keyTimes="0;1" values="-100 489.1561282987515;1536 489.1561282987515" dur="33.333333333333336s" repeatCount="indefinite" begin="-5.620497885542545s"></animateTransform>
  <path d="M84.717,33.597c0.791-2.503,1.186-5.138,1.186-7.773C85.903,11.594,74.308,0,60.079,0 c-9.881,0-18.445,5.534-22.793,13.702c-1.581-0.527-3.426-0.791-5.138-0.791c-9.486,0-17.128,7.642-17.128,17.128 c0,1.186,0.132,2.372,0.395,3.426C6.719,34.783,0,42.424,0,51.515C0,61.66,8.169,69.829,18.314,69.829h63.373 C91.831,69.829,100,61.66,100,51.515C99.868,42.556,93.281,35.046,84.717,33.597z" fill="#ffffff" transform="scale(0.9730000000000002)"></path>
</g><g transform="translate(633.431 338.971)">
  <animateTransform attributeName="transform" type="translate" keyTimes="0;1" values="-100 338.9712183769843;1536 338.9712183769843" dur="33.333333333333336s" repeatCount="indefinite" begin="-16.521361540784195s"></animateTransform>
  <path d="M84.717,33.597c0.791-2.503,1.186-5.138,1.186-7.773C85.903,11.594,74.308,0,60.079,0 c-9.881,0-18.445,5.534-22.793,13.702c-1.581-0.527-3.426-0.791-5.138-0.791c-9.486,0-17.128,7.642-17.128,17.128 c0,1.186,0.132,2.372,0.395,3.426C6.719,34.783,0,42.424,0,51.515C0,61.66,8.169,69.829,18.314,69.829h63.373 C91.831,69.829,100,61.66,100,51.515C99.868,42.556,93.281,35.046,84.717,33.597z" fill="#ffffff" transform="scale(0.9730000000000002)"></path>
</g><g transform="translate(1434.61 188.42)">
  <animateTransform attributeName="transform" type="translate" keyTimes="0;1" values="-100 188.4201441036696;1536 188.4201441036696" dur="33.333333333333336s" repeatCount="indefinite" begin="-32.84526626034867s"></animateTransform>
  <path d="M84.717,33.597c0.791-2.503,1.186-5.138,1.186-7.773C85.903,11.594,74.308,0,60.079,0 c-9.881,0-18.445,5.534-22.793,13.702c-1.581-0.527-3.426-0.791-5.138-0.791c-9.486,0-17.128,7.642-17.128,17.128 c0,1.186,0.132,2.372,0.395,3.426C6.719,34.783,0,42.424,0,51.515C0,61.66,8.169,69.829,18.314,69.829h63.373 C91.831,69.829,100,61.66,100,51.515C99.868,42.556,93.281,35.046,84.717,33.597z" fill="#ffffff" transform="scale(0.9730000000000002)"></path>
</g><g transform="translate(1176.89 532.194)">
  <animateTransform attributeName="transform" type="translate" keyTimes="0;1" values="-100 532.1940518616868;1536 532.1940518616868" dur="33.333333333333336s" repeatCount="indefinite" begin="-60.927682068237594s"></animateTransform>
  <path d="M84.717,33.597c0.791-2.503,1.186-5.138,1.186-7.773C85.903,11.594,74.308,0,60.079,0 c-9.881,0-18.445,5.534-22.793,13.702c-1.581-0.527-3.426-0.791-5.138-0.791c-9.486,0-17.128,7.642-17.128,17.128 c0,1.186,0.132,2.372,0.395,3.426C6.719,34.783,0,42.424,0,51.515C0,61.66,8.169,69.829,18.314,69.829h63.373 C91.831,69.829,100,61.66,100,51.515C99.868,42.556,93.281,35.046,84.717,33.597z" fill="#ffffff" transform="scale(0.9730000000000002)"></path>
</g><g transform="translate(662.224 214.87)">
  <animateTransform attributeName="transform" type="translate" keyTimes="0;1" values="-100 214.86978536496207;1536 214.86978536496207" dur="33.333333333333336s" repeatCount="indefinite" begin="-50.441355532154006s"></animateTransform>
  <path d="M84.717,33.597c0.791-2.503,1.186-5.138,1.186-7.773C85.903,11.594,74.308,0,60.079,0 c-9.881,0-18.445,5.534-22.793,13.702c-1.581-0.527-3.426-0.791-5.138-0.791c-9.486,0-17.128,7.642-17.128,17.128 c0,1.186,0.132,2.372,0.395,3.426C6.719,34.783,0,42.424,0,51.515C0,61.66,8.169,69.829,18.314,69.829h63.373 C91.831,69.829,100,61.66,100,51.515C99.868,42.556,93.281,35.046,84.717,33.597z" fill="#ffffff" transform="scale(0.9730000000000002)"></path>
</g><g transform="translate(856.466 641.485)">
  <animateTransform attributeName="transform" type="translate" keyTimes="0;1" values="-100 641.4847340017269;1536 641.4847340017269" dur="33.333333333333336s" repeatCount="indefinite" begin="-21.065683655080853s"></animateTransform>
  <path d="M84.717,33.597c0.791-2.503,1.186-5.138,1.186-7.773C85.903,11.594,74.308,0,60.079,0 c-9.881,0-18.445,5.534-22.793,13.702c-1.581-0.527-3.426-0.791-5.138-0.791c-9.486,0-17.128,7.642-17.128,17.128 c0,1.186,0.132,2.372,0.395,3.426C6.719,34.783,0,42.424,0,51.515C0,61.66,8.169,69.829,18.314,69.829h63.373 C91.831,69.829,100,61.66,100,51.515C99.868,42.556,93.281,35.046,84.717,33.597z" fill="#ffffff" transform="scale(0.9730000000000002)"></path>
</g><g transform="translate(97.8369 305.785)">
  <animateTransform attributeName="transform" type="translate" keyTimes="0;1" values="-100 305.7849793262514;1536 305.7849793262514" dur="33.333333333333336s" repeatCount="indefinite" begin="-5.608685022492432s"></animateTransform>
  <path d="M84.717,33.597c0.791-2.503,1.186-5.138,1.186-7.773C85.903,11.594,74.308,0,60.079,0 c-9.881,0-18.445,5.534-22.793,13.702c-1.581-0.527-3.426-0.791-5.138-0.791c-9.486,0-17.128,7.642-17.128,17.128 c0,1.186,0.132,2.372,0.395,3.426C6.719,34.783,0,42.424,0,51.515C0,61.66,8.169,69.829,18.314,69.829h63.373 C91.831,69.829,100,61.66,100,51.515C99.868,42.556,93.281,35.046,84.717,33.597z" fill="#ffffff" transform="scale(0.9730000000000002)"></path>
</g><g transform="translate(1183.74 189.156)">
  <animateTransform attributeName="transform" type="translate" keyTimes="0;1" values="-100 189.15633780513616;1536 189.15633780513616" dur="33.333333333333336s" repeatCount="indefinite" begin="-61.06725274221316s"></animateTransform>
  <path d="M84.717,33.597c0.791-2.503,1.186-5.138,1.186-7.773C85.903,11.594,74.308,0,60.079,0 c-9.881,0-18.445,5.534-22.793,13.702c-1.581-0.527-3.426-0.791-5.138-0.791c-9.486,0-17.128,7.642-17.128,17.128 c0,1.186,0.132,2.372,0.395,3.426C6.719,34.783,0,42.424,0,51.515C0,61.66,8.169,69.829,18.314,69.829h63.373 C91.831,69.829,100,61.66,100,51.515C99.868,42.556,93.281,35.046,84.717,33.597z" fill="#ffffff" transform="scale(0.9730000000000002)"></path>
</g><g transform="translate(1422.47 193.201)">
  <animateTransform attributeName="transform" type="translate" keyTimes="0;1" values="-100 193.2009706548367;1536 193.2009706548367" dur="33.333333333333336s" repeatCount="indefinite" begin="-32.59800416670277s"></animateTransform>
  <path d="M84.717,33.597c0.791-2.503,1.186-5.138,1.186-7.773C85.903,11.594,74.308,0,60.079,0 c-9.881,0-18.445,5.534-22.793,13.702c-1.581-0.527-3.426-0.791-5.138-0.791c-9.486,0-17.128,7.642-17.128,17.128 c0,1.186,0.132,2.372,0.395,3.426C6.719,34.783,0,42.424,0,51.515C0,61.66,8.169,69.829,18.314,69.829h63.373 C91.831,69.829,100,61.66,100,51.515C99.868,42.556,93.281,35.046,84.717,33.597z" fill="#ffffff" transform="scale(0.9730000000000002)"></path>
</g><g transform="translate(908.831 556.411)">
  <animateTransform attributeName="transform" type="translate" keyTimes="0;1" values="-100 556.4108294397346;1536 556.4108294397346" dur="33.333333333333336s" repeatCount="indefinite" begin="-55.46594617835291s"></animateTransform>
  <path d="M84.717,33.597c0.791-2.503,1.186-5.138,1.186-7.773C85.903,11.594,74.308,0,60.079,0 c-9.881,0-18.445,5.534-22.793,13.702c-1.581-0.527-3.426-0.791-5.138-0.791c-9.486,0-17.128,7.642-17.128,17.128 c0,1.186,0.132,2.372,0.395,3.426C6.719,34.783,0,42.424,0,51.515C0,61.66,8.169,69.829,18.314,69.829h63.373 C91.831,69.829,100,61.66,100,51.515C99.868,42.556,93.281,35.046,84.717,33.597z" fill="#ffffff" transform="scale(0.9730000000000002)"></path>
</g><g transform="translate(959.039 654.847)">
  <animateTransform attributeName="transform" type="translate" keyTimes="0;1" values="-100 654.8473145539785;1536 654.8473145539785" dur="33.333333333333336s" repeatCount="indefinite" begin="-56.4889224850505s"></animateTransform>
  <path d="M84.717,33.597c0.791-2.503,1.186-5.138,1.186-7.773C85.903,11.594,74.308,0,60.079,0 c-9.881,0-18.445,5.534-22.793,13.702c-1.581-0.527-3.426-0.791-5.138-0.791c-9.486,0-17.128,7.642-17.128,17.128 c0,1.186,0.132,2.372,0.395,3.426C6.719,34.783,0,42.424,0,51.515C0,61.66,8.169,69.829,18.314,69.829h63.373 C91.831,69.829,100,61.66,100,51.515C99.868,42.556,93.281,35.046,84.717,33.597z" fill="#ffffff" transform="scale(0.9730000000000002)"></path>
</g><g transform="translate(1190.27 463.61)">
  <animateTransform attributeName="transform" type="translate" keyTimes="0;1" values="-100 463.60958427395786;1536 463.60958427395786" dur="22.222222222222225s" repeatCount="indefinite" begin="-7.992739928263179s"></animateTransform>
  <path d="M84.717,33.597c0.791-2.503,1.186-5.138,1.186-7.773C85.903,11.594,74.308,0,60.079,0 c-9.881,0-18.445,5.534-22.793,13.702c-1.581-0.527-3.426-0.791-5.138-0.791c-9.486,0-17.128,7.642-17.128,17.128 c0,1.186,0.132,2.372,0.395,3.426C6.719,34.783,0,42.424,0,51.515C0,61.66,8.169,69.829,18.314,69.829h63.373 C91.831,69.829,100,61.66,100,51.515C99.868,42.556,93.281,35.046,84.717,33.597z" fill="#f1f2f3" transform="scale(1.1865)"></path>
</g><g transform="translate(1311.18 707.217)">
  <animateTransform attributeName="transform" type="translate" keyTimes="0;1" values="-100 707.2165506229536;1536 707.2165506229536" dur="22.222222222222225s" repeatCount="indefinite" begin="-31.857370046378396s"></animateTransform>
  <path d="M84.717,33.597c0.791-2.503,1.186-5.138,1.186-7.773C85.903,11.594,74.308,0,60.079,0 c-9.881,0-18.445,5.534-22.793,13.702c-1.581-0.527-3.426-0.791-5.138-0.791c-9.486,0-17.128,7.642-17.128,17.128 c0,1.186,0.132,2.372,0.395,3.426C6.719,34.783,0,42.424,0,51.515C0,61.66,8.169,69.829,18.314,69.829h63.373 C91.831,69.829,100,61.66,100,51.515C99.868,42.556,93.281,35.046,84.717,33.597z" fill="#f1f2f3" transform="scale(1.1865)"></path>
</g><g transform="translate(1449.42 197.035)">
  <animateTransform attributeName="transform" type="translate" keyTimes="0;1" values="-100 197.0353200538807;1536 197.0353200538807" dur="22.222222222222225s" repeatCount="indefinite" begin="-55.95728772008791s"></animateTransform>
  <path d="M84.717,33.597c0.791-2.503,1.186-5.138,1.186-7.773C85.903,11.594,74.308,0,60.079,0 c-9.881,0-18.445,5.534-22.793,13.702c-1.581-0.527-3.426-0.791-5.138-0.791c-9.486,0-17.128,7.642-17.128,17.128 c0,1.186,0.132,2.372,0.395,3.426C6.719,34.783,0,42.424,0,51.515C0,61.66,8.169,69.829,18.314,69.829h63.373 C91.831,69.829,100,61.66,100,51.515C99.868,42.556,93.281,35.046,84.717,33.597z" fill="#f1f2f3" transform="scale(1.1865)"></path>
</g><g transform="translate(460.782 572.789)">
  <animateTransform attributeName="transform" type="translate" keyTimes="0;1" values="-100 572.7890853893355;1536 572.7890853893355" dur="22.222222222222225s" repeatCount="indefinite" begin="-42.52836298658851s"></animateTransform>
  <path d="M84.717,33.597c0.791-2.503,1.186-5.138,1.186-7.773C85.903,11.594,74.308,0,60.079,0 c-9.881,0-18.445,5.534-22.793,13.702c-1.581-0.527-3.426-0.791-5.138-0.791c-9.486,0-17.128,7.642-17.128,17.128 c0,1.186,0.132,2.372,0.395,3.426C6.719,34.783,0,42.424,0,51.515C0,61.66,8.169,69.829,18.314,69.829h63.373 C91.831,69.829,100,61.66,100,51.515C99.868,42.556,93.281,35.046,84.717,33.597z" fill="#f1f2f3" transform="scale(1.1865)"></path>
</g><g transform="translate(1370.63 463.53)">
  <animateTransform attributeName="transform" type="translate" keyTimes="0;1" values="-100 463.5295779754045;1536 463.5295779754045" dur="22.222222222222225s" repeatCount="indefinite" begin="-54.88707904839384s"></animateTransform>
  <path d="M84.717,33.597c0.791-2.503,1.186-5.138,1.186-7.773C85.903,11.594,74.308,0,60.079,0 c-9.881,0-18.445,5.534-22.793,13.702c-1.581-0.527-3.426-0.791-5.138-0.791c-9.486,0-17.128,7.642-17.128,17.128 c0,1.186,0.132,2.372,0.395,3.426C6.719,34.783,0,42.424,0,51.515C0,61.66,8.169,69.829,18.314,69.829h63.373 C91.831,69.829,100,61.66,100,51.515C99.868,42.556,93.281,35.046,84.717,33.597z" fill="#f1f2f3" transform="scale(1.1865)"></path>
</g><g transform="translate(297.499 122.166)">
  <animateTransform attributeName="transform" type="translate" keyTimes="0;1" values="-100 122.16582667389129;1536 122.16582667389129" dur="22.222222222222225s" repeatCount="indefinite" begin="-40.310445954232335s"></animateTransform>
  <path d="M84.717,33.597c0.791-2.503,1.186-5.138,1.186-7.773C85.903,11.594,74.308,0,60.079,0 c-9.881,0-18.445,5.534-22.793,13.702c-1.581-0.527-3.426-0.791-5.138-0.791c-9.486,0-17.128,7.642-17.128,17.128 c0,1.186,0.132,2.372,0.395,3.426C6.719,34.783,0,42.424,0,51.515C0,61.66,8.169,69.829,18.314,69.829h63.373 C91.831,69.829,100,61.66,100,51.515C99.868,42.556,93.281,35.046,84.717,33.597z" fill="#f1f2f3" transform="scale(1.1865)"></path>
</g><g transform="translate(965.449 32.396)">
  <animateTransform attributeName="transform" type="translate" keyTimes="0;1" values="-100 32.39595772786639;1536 32.39595772786639" dur="22.222222222222225s" repeatCount="indefinite" begin="-4.938943619752786s"></animateTransform>
  <path d="M84.717,33.597c0.791-2.503,1.186-5.138,1.186-7.773C85.903,11.594,74.308,0,60.079,0 c-9.881,0-18.445,5.534-22.793,13.702c-1.581-0.527-3.426-0.791-5.138-0.791c-9.486,0-17.128,7.642-17.128,17.128 c0,1.186,0.132,2.372,0.395,3.426C6.719,34.783,0,42.424,0,51.515C0,61.66,8.169,69.829,18.314,69.829h63.373 C91.831,69.829,100,61.66,100,51.515C99.868,42.556,93.281,35.046,84.717,33.597z" fill="#f1f2f3" transform="scale(1.1865)"></path>
</g><g transform="translate(1236.94 511.878)">
  <animateTransform attributeName="transform" type="translate" keyTimes="0;1" values="-100 511.87780293414085;1536 511.87780293414085" dur="22.222222222222225s" repeatCount="indefinite" begin="-8.626712258261371s"></animateTransform>
  <path d="M84.717,33.597c0.791-2.503,1.186-5.138,1.186-7.773C85.903,11.594,74.308,0,60.079,0 c-9.881,0-18.445,5.534-22.793,13.702c-1.581-0.527-3.426-0.791-5.138-0.791c-9.486,0-17.128,7.642-17.128,17.128 c0,1.186,0.132,2.372,0.395,3.426C6.719,34.783,0,42.424,0,51.515C0,61.66,8.169,69.829,18.314,69.829h63.373 C91.831,69.829,100,61.66,100,51.515C99.868,42.556,93.281,35.046,84.717,33.597z" fill="#f1f2f3" transform="scale(1.1865)"></path>
</g><g transform="translate(681.532 667.331)">
  <animateTransform attributeName="transform" type="translate" keyTimes="0;1" values="-100 667.3306882932873;1536 667.3306882932873" dur="22.222222222222225s" repeatCount="indefinite" begin="-45.52686485468676s"></animateTransform>
  <path d="M84.717,33.597c0.791-2.503,1.186-5.138,1.186-7.773C85.903,11.594,74.308,0,60.079,0 c-9.881,0-18.445,5.534-22.793,13.702c-1.581-0.527-3.426-0.791-5.138-0.791c-9.486,0-17.128,7.642-17.128,17.128 c0,1.186,0.132,2.372,0.395,3.426C6.719,34.783,0,42.424,0,51.515C0,61.66,8.169,69.829,18.314,69.829h63.373 C91.831,69.829,100,61.66,100,51.515C99.868,42.556,93.281,35.046,84.717,33.597z" fill="#f1f2f3" transform="scale(1.1865)"></path>
</g><g transform="translate(1056.38 546.303)">
  <animateTransform attributeName="transform" type="translate" keyTimes="0;1" values="-100 546.3027312274246;1536 546.3027312274246" dur="22.222222222222225s" repeatCount="indefinite" begin="-28.396365612831005s"></animateTransform>
  <path d="M84.717,33.597c0.791-2.503,1.186-5.138,1.186-7.773C85.903,11.594,74.308,0,60.079,0 c-9.881,0-18.445,5.534-22.793,13.702c-1.581-0.527-3.426-0.791-5.138-0.791c-9.486,0-17.128,7.642-17.128,17.128 c0,1.186,0.132,2.372,0.395,3.426C6.719,34.783,0,42.424,0,51.515C0,61.66,8.169,69.829,18.314,69.829h63.373 C91.831,69.829,100,61.66,100,51.515C99.868,42.556,93.281,35.046,84.717,33.597z" fill="#f1f2f3" transform="scale(1.1865)"></path>
</g><g transform="translate(876.774 208.417)">
  <animateTransform attributeName="transform" type="translate" keyTimes="0;1" values="-100 208.41682821280872;1536 208.41682821280872" dur="22.222222222222225s" repeatCount="indefinite" begin="-25.956670788273968s"></animateTransform>
  <path d="M84.717,33.597c0.791-2.503,1.186-5.138,1.186-7.773C85.903,11.594,74.308,0,60.079,0 c-9.881,0-18.445,5.534-22.793,13.702c-1.581-0.527-3.426-0.791-5.138-0.791c-9.486,0-17.128,7.642-17.128,17.128 c0,1.186,0.132,2.372,0.395,3.426C6.719,34.783,0,42.424,0,51.515C0,61.66,8.169,69.829,18.314,69.829h63.373 C91.831,69.829,100,61.66,100,51.515C99.868,42.556,93.281,35.046,84.717,33.597z" fill="#f1f2f3" transform="scale(1.1865)"></path>
</g><g transform="translate(871.084 282.277)">
  <animateTransform attributeName="transform" type="translate" keyTimes="0;1" values="-100 282.2770489926975;1536 282.2770489926975" dur="16.666666666666668s" repeatCount="indefinite" begin="-28.137310715676794s"></animateTransform>
  <path d="M84.717,33.597c0.791-2.503,1.186-5.138,1.186-7.773C85.903,11.594,74.308,0,60.079,0 c-9.881,0-18.445,5.534-22.793,13.702c-1.581-0.527-3.426-0.791-5.138-0.791c-9.486,0-17.128,7.642-17.128,17.128 c0,1.186,0.132,2.372,0.395,3.426C6.719,34.783,0,42.424,0,51.515C0,61.66,8.169,69.829,18.314,69.829h63.373 C91.831,69.829,100,61.66,100,51.515C99.868,42.556,93.281,35.046,84.717,33.597z" fill="#bddeff" transform="scale(1.4000000000000001)"></path>
</g><g transform="translate(142.375 16.1927)">
  <animateTransform attributeName="transform" type="translate" keyTimes="0;1" values="-100 16.19270171198542;1536 16.19270171198542" dur="16.666666666666668s" repeatCount="indefinite" begin="-37.38028989455503s"></animateTransform>
  <path d="M84.717,33.597c0.791-2.503,1.186-5.138,1.186-7.773C85.903,11.594,74.308,0,60.079,0 c-9.881,0-18.445,5.534-22.793,13.702c-1.581-0.527-3.426-0.791-5.138-0.791c-9.486,0-17.128,7.642-17.128,17.128 c0,1.186,0.132,2.372,0.395,3.426C6.719,34.783,0,42.424,0,51.515C0,61.66,8.169,69.829,18.314,69.829h63.373 C91.831,69.829,100,61.66,100,51.515C99.868,42.556,93.281,35.046,84.717,33.597z" fill="#bddeff" transform="scale(1.4000000000000001)"></path>
</g><g transform="translate(521.389 216.061)">
  <animateTransform attributeName="transform" type="translate" keyTimes="0;1" values="-100 216.06134236280806;1536 216.06134236280806" dur="16.666666666666668s" repeatCount="indefinite" begin="-24.57480972231044s"></animateTransform>
  <path d="M84.717,33.597c0.791-2.503,1.186-5.138,1.186-7.773C85.903,11.594,74.308,0,60.079,0 c-9.881,0-18.445,5.534-22.793,13.702c-1.581-0.527-3.426-0.791-5.138-0.791c-9.486,0-17.128,7.642-17.128,17.128 c0,1.186,0.132,2.372,0.395,3.426C6.719,34.783,0,42.424,0,51.515C0,61.66,8.169,69.829,18.314,69.829h63.373 C91.831,69.829,100,61.66,100,51.515C99.868,42.556,93.281,35.046,84.717,33.597z" fill="#bddeff" transform="scale(1.4000000000000001)"></path>
</g><g transform="translate(1086.9 168.685)">
  <animateTransform attributeName="transform" type="translate" keyTimes="0;1" values="-100 168.68452003163398;1536 168.68452003163398" dur="16.666666666666668s" repeatCount="indefinite" begin="-30.335941656686703s"></animateTransform>
  <path d="M84.717,33.597c0.791-2.503,1.186-5.138,1.186-7.773C85.903,11.594,74.308,0,60.079,0 c-9.881,0-18.445,5.534-22.793,13.702c-1.581-0.527-3.426-0.791-5.138-0.791c-9.486,0-17.128,7.642-17.128,17.128 c0,1.186,0.132,2.372,0.395,3.426C6.719,34.783,0,42.424,0,51.515C0,61.66,8.169,69.829,18.314,69.829h63.373 C91.831,69.829,100,61.66,100,51.515C99.868,42.556,93.281,35.046,84.717,33.597z" fill="#bddeff" transform="scale(1.4000000000000001)"></path>
</g><g transform="translate(805.483 593.583)">
  <animateTransform attributeName="transform" type="translate" keyTimes="0;1" values="-100 593.5825999039392;1536 593.5825999039392" dur="16.666666666666668s" repeatCount="indefinite" begin="-44.13567027613872s"></animateTransform>
  <path d="M84.717,33.597c0.791-2.503,1.186-5.138,1.186-7.773C85.903,11.594,74.308,0,60.079,0 c-9.881,0-18.445,5.534-22.793,13.702c-1.581-0.527-3.426-0.791-5.138-0.791c-9.486,0-17.128,7.642-17.128,17.128 c0,1.186,0.132,2.372,0.395,3.426C6.719,34.783,0,42.424,0,51.515C0,61.66,8.169,69.829,18.314,69.829h63.373 C91.831,69.829,100,61.66,100,51.515C99.868,42.556,93.281,35.046,84.717,33.597z" fill="#bddeff" transform="scale(1.4000000000000001)"></path>
</g><g transform="translate(1024.18 543.008)">
  <animateTransform attributeName="transform" type="translate" keyTimes="0;1" values="-100 543.007848049312;1536 543.007848049312" dur="16.666666666666668s" repeatCount="indefinite" begin="-63.0302920720688s"></animateTransform>
  <path d="M84.717,33.597c0.791-2.503,1.186-5.138,1.186-7.773C85.903,11.594,74.308,0,60.079,0 c-9.881,0-18.445,5.534-22.793,13.702c-1.581-0.527-3.426-0.791-5.138-0.791c-9.486,0-17.128,7.642-17.128,17.128 c0,1.186,0.132,2.372,0.395,3.426C6.719,34.783,0,42.424,0,51.515C0,61.66,8.169,69.829,18.314,69.829h63.373 C91.831,69.829,100,61.66,100,51.515C99.868,42.556,93.281,35.046,84.717,33.597z" fill="#bddeff" transform="scale(1.4000000000000001)"></path>
</g><g transform="translate(910.405 531.904)">
  <animateTransform attributeName="transform" type="translate" keyTimes="0;1" values="-100 531.9037402744652;1536 531.9037402744652" dur="16.666666666666668s" repeatCount="indefinite" begin="-61.87122514825561s"></animateTransform>
  <path d="M84.717,33.597c0.791-2.503,1.186-5.138,1.186-7.773C85.903,11.594,74.308,0,60.079,0 c-9.881,0-18.445,5.534-22.793,13.702c-1.581-0.527-3.426-0.791-5.138-0.791c-9.486,0-17.128,7.642-17.128,17.128 c0,1.186,0.132,2.372,0.395,3.426C6.719,34.783,0,42.424,0,51.515C0,61.66,8.169,69.829,18.314,69.829h63.373 C91.831,69.829,100,61.66,100,51.515C99.868,42.556,93.281,35.046,84.717,33.597z" fill="#bddeff" transform="scale(1.4000000000000001)"></path>
</g><g transform="translate(1407.35 448.984)">
  <animateTransform attributeName="transform" type="translate" keyTimes="0;1" values="-100 448.98397628171034;1536 448.98397628171034" dur="16.666666666666668s" repeatCount="indefinite" begin="-0.2671721413296672s"></animateTransform>
  <path d="M84.717,33.597c0.791-2.503,1.186-5.138,1.186-7.773C85.903,11.594,74.308,0,60.079,0 c-9.881,0-18.445,5.534-22.793,13.702c-1.581-0.527-3.426-0.791-5.138-0.791c-9.486,0-17.128,7.642-17.128,17.128 c0,1.186,0.132,2.372,0.395,3.426C6.719,34.783,0,42.424,0,51.515C0,61.66,8.169,69.829,18.314,69.829h63.373 C91.831,69.829,100,61.66,100,51.515C99.868,42.556,93.281,35.046,84.717,33.597z" fill="#bddeff" transform="scale(1.4000000000000001)"></path>
</g><g transform="translate(50.135 710.861)">
  <animateTransform attributeName="transform" type="translate" keyTimes="0;1" values="-100 710.8610461253427;1536 710.8610461253427" dur="16.666666666666668s" repeatCount="indefinite" begin="-3.107271412012924s"></animateTransform>
  <path d="M84.717,33.597c0.791-2.503,1.186-5.138,1.186-7.773C85.903,11.594,74.308,0,60.079,0 c-9.881,0-18.445,5.534-22.793,13.702c-1.581-0.527-3.426-0.791-5.138-0.791c-9.486,0-17.128,7.642-17.128,17.128 c0,1.186,0.132,2.372,0.395,3.426C6.719,34.783,0,42.424,0,51.515C0,61.66,8.169,69.829,18.314,69.829h63.373 C91.831,69.829,100,61.66,100,51.515C99.868,42.556,93.281,35.046,84.717,33.597z" fill="#bddeff" transform="scale(1.4000000000000001)"></path>
</g><g transform="translate(796.678 647.474)">
  <animateTransform attributeName="transform" type="translate" keyTimes="0;1" values="-100 647.4734845440698;1536 647.4734845440698" dur="16.666666666666668s" repeatCount="indefinite" begin="-44.04597191154545s"></animateTransform>
  <path d="M84.717,33.597c0.791-2.503,1.186-5.138,1.186-7.773C85.903,11.594,74.308,0,60.079,0 c-9.881,0-18.445,5.534-22.793,13.702c-1.581-0.527-3.426-0.791-5.138-0.791c-9.486,0-17.128,7.642-17.128,17.128 c0,1.186,0.132,2.372,0.395,3.426C6.719,34.783,0,42.424,0,51.515C0,61.66,8.169,69.829,18.314,69.829h63.373 C91.831,69.829,100,61.66,100,51.515C99.868,42.556,93.281,35.046,84.717,33.597z" fill="#bddeff" transform="scale(1.4000000000000001)"></path>
</g><g transform="translate(936.726 563.63)">
  <animateTransform attributeName="transform" type="translate" keyTimes="0;1" values="-100 563.6300081929621;1536 563.6300081929621" dur="16.666666666666668s" repeatCount="indefinite" begin="-62.13937158283356s"></animateTransform>
  <path d="M84.717,33.597c0.791-2.503,1.186-5.138,1.186-7.773C85.903,11.594,74.308,0,60.079,0 c-9.881,0-18.445,5.534-22.793,13.702c-1.581-0.527-3.426-0.791-5.138-0.791c-9.486,0-17.128,7.642-17.128,17.128 c0,1.186,0.132,2.372,0.395,3.426C6.719,34.783,0,42.424,0,51.515C0,61.66,8.169,69.829,18.314,69.829h63.373 C91.831,69.829,100,61.66,100,51.515C99.868,42.556,93.281,35.046,84.717,33.597z" fill="#bddeff" transform="scale(1.4000000000000001)"></path>
</g><g transform="translate(881.193 90.4293)">
  <animateTransform attributeName="transform" type="translate" keyTimes="0;1" values="-100 90.42926476103423;1536 90.42926476103423" dur="16.666666666666668s" repeatCount="indefinite" begin="-28.240301752899096s"></animateTransform>
  <path d="M84.717,33.597c0.791-2.503,1.186-5.138,1.186-7.773C85.903,11.594,74.308,0,60.079,0 c-9.881,0-18.445,5.534-22.793,13.702c-1.581-0.527-3.426-0.791-5.138-0.791c-9.486,0-17.128,7.642-17.128,17.128 c0,1.186,0.132,2.372,0.395,3.426C6.719,34.783,0,42.424,0,51.515C0,61.66,8.169,69.829,18.314,69.829h63.373 C91.831,69.829,100,61.66,100,51.515C99.868,42.556,93.281,35.046,84.717,33.597z" fill="#bddeff" transform="scale(1.4000000000000001)"></path>
</g></g>
</svg>