<svg xmlns="http://www.w3.org/2000/svg" xmlns:xlink="http://www.w3.org/1999/xlink" style="margin:auto;background:#7aceff;display:block;z-index:1;position:relative" width="1920" height="1080" preserveAspectRatio="xMidYMid" viewBox="0 0 1920 969">
<g transform=""><g transform="translate(34.1764 173.042)">
  <animateTransform attributeName="transform" type="translate" keyTimes="0;1" values="-100 173.0417435155365;1920 173.0417435155365" dur="66.66666666666667s" repeatCount="indefinite" begin="-45.17312844826006s"></animateTransform>
  <path d="M84.717,33.597c0.791-2.503,1.186-5.138,1.186-7.773C85.903,11.594,74.308,0,60.079,0 c-9.881,0-18.445,5.534-22.793,13.702c-1.581-0.527-3.426-0.791-5.138-0.791c-9.486,0-17.128,7.642-17.128,17.128 c0,1.186,0.132,2.372,0.395,3.426C6.719,34.783,0,42.424,0,51.515C0,61.66,8.169,69.829,18.314,69.829h63.373 C91.831,69.829,100,61.66,100,51.515C99.868,42.556,93.281,35.046,84.717,33.597z" fill="#bddeff" transform="scale(0.7150000000000002)"></path>
</g><g transform="translate(1436.26 444.923)">
  <animateTransform attributeName="transform" type="translate" keyTimes="0;1" values="-100 444.9225137582798;1920 444.9225137582798" dur="66.66666666666667s" repeatCount="indefinite" begin="-24.779812274535992s"></animateTransform>
  <path d="M84.717,33.597c0.791-2.503,1.186-5.138,1.186-7.773C85.903,11.594,74.308,0,60.079,0 c-9.881,0-18.445,5.534-22.793,13.702c-1.581-0.527-3.426-0.791-5.138-0.791c-9.486,0-17.128,7.642-17.128,17.128 c0,1.186,0.132,2.372,0.395,3.426C6.719,34.783,0,42.424,0,51.515C0,61.66,8.169,69.829,18.314,69.829h63.373 C91.831,69.829,100,61.66,100,51.515C99.868,42.556,93.281,35.046,84.717,33.597z" fill="#bddeff" transform="scale(0.7150000000000002)"></path>
</g><g transform="translate(1432.81 883.601)">
  <animateTransform attributeName="transform" type="translate" keyTimes="0;1" values="-100 883.6005555726808;1920 883.6005555726808" dur="66.66666666666667s" repeatCount="indefinite" begin="-24.665941508358888s"></animateTransform>
  <path d="M84.717,33.597c0.791-2.503,1.186-5.138,1.186-7.773C85.903,11.594,74.308,0,60.079,0 c-9.881,0-18.445,5.534-22.793,13.702c-1.581-0.527-3.426-0.791-5.138-0.791c-9.486,0-17.128,7.642-17.128,17.128 c0,1.186,0.132,2.372,0.395,3.426C6.719,34.783,0,42.424,0,51.515C0,61.66,8.169,69.829,18.314,69.829h63.373 C91.831,69.829,100,61.66,100,51.515C99.868,42.556,93.281,35.046,84.717,33.597z" fill="#bddeff" transform="scale(0.7150000000000002)"></path>
</g><g transform="translate(109.186 848.895)">
  <animateTransform attributeName="transform" type="translate" keyTimes="0;1" values="-100 848.8946108999902;1920 848.8946108999902" dur="66.66666666666667s" repeatCount="indefinite" begin="-47.64867771305069s"></animateTransform>
  <path d="M84.717,33.597c0.791-2.503,1.186-5.138,1.186-7.773C85.903,11.594,74.308,0,60.079,0 c-9.881,0-18.445,5.534-22.793,13.702c-1.581-0.527-3.426-0.791-5.138-0.791c-9.486,0-17.128,7.642-17.128,17.128 c0,1.186,0.132,2.372,0.395,3.426C6.719,34.783,0,42.424,0,51.515C0,61.66,8.169,69.829,18.314,69.829h63.373 C91.831,69.829,100,61.66,100,51.515C99.868,42.556,93.281,35.046,84.717,33.597z" fill="#bddeff" transform="scale(0.7150000000000002)"></path>
</g><g transform="translate(591.863 291.538)">
  <animateTransform attributeName="transform" type="translate" keyTimes="0;1" values="-100 291.5377676137923;1920 291.5377676137923" dur="66.66666666666667s" repeatCount="indefinite" begin="-63.57862168671431s"></animateTransform>
  <path d="M84.717,33.597c0.791-2.503,1.186-5.138,1.186-7.773C85.903,11.594,74.308,0,60.079,0 c-9.881,0-18.445,5.534-22.793,13.702c-1.581-0.527-3.426-0.791-5.138-0.791c-9.486,0-17.128,7.642-17.128,17.128 c0,1.186,0.132,2.372,0.395,3.426C6.719,34.783,0,42.424,0,51.515C0,61.66,8.169,69.829,18.314,69.829h63.373 C91.831,69.829,100,61.66,100,51.515C99.868,42.556,93.281,35.046,84.717,33.597z" fill="#bddeff" transform="scale(0.7150000000000002)"></path>
</g><g transform="translate(985.846 649.868)">
  <animateTransform attributeName="transform" type="translate" keyTimes="0;1" values="-100 649.8682693971781;1920 649.8682693971781" dur="66.66666666666667s" repeatCount="indefinite" begin="-9.914704627948606s"></animateTransform>
  <path d="M84.717,33.597c0.791-2.503,1.186-5.138,1.186-7.773C85.903,11.594,74.308,0,60.079,0 c-9.881,0-18.445,5.534-22.793,13.702c-1.581-0.527-3.426-0.791-5.138-0.791c-9.486,0-17.128,7.642-17.128,17.128 c0,1.186,0.132,2.372,0.395,3.426C6.719,34.783,0,42.424,0,51.515C0,61.66,8.169,69.829,18.314,69.829h63.373 C91.831,69.829,100,61.66,100,51.515C99.868,42.556,93.281,35.046,84.717,33.597z" fill="#bddeff" transform="scale(0.7150000000000002)"></path>
</g><g transform="translate(1632.99 351.202)">
  <animateTransform attributeName="transform" type="translate" keyTimes="0;1" values="-100 351.20196870981323;1920 351.20196870981323" dur="66.66666666666667s" repeatCount="indefinite" begin="-31.272471800979233s"></animateTransform>
  <path d="M84.717,33.597c0.791-2.503,1.186-5.138,1.186-7.773C85.903,11.594,74.308,0,60.079,0 c-9.881,0-18.445,5.534-22.793,13.702c-1.581-0.527-3.426-0.791-5.138-0.791c-9.486,0-17.128,7.642-17.128,17.128 c0,1.186,0.132,2.372,0.395,3.426C6.719,34.783,0,42.424,0,51.515C0,61.66,8.169,69.829,18.314,69.829h63.373 C91.831,69.829,100,61.66,100,51.515C99.868,42.556,93.281,35.046,84.717,33.597z" fill="#bddeff" transform="scale(0.7150000000000002)"></path>
</g><g transform="translate(336.138 444.191)">
  <animateTransform attributeName="transform" type="translate" keyTimes="0;1" values="-100 444.1905559447377;1920 444.1905559447377" dur="66.66666666666667s" repeatCount="indefinite" begin="-55.13887267679425s"></animateTransform>
  <path d="M84.717,33.597c0.791-2.503,1.186-5.138,1.186-7.773C85.903,11.594,74.308,0,60.079,0 c-9.881,0-18.445,5.534-22.793,13.702c-1.581-0.527-3.426-0.791-5.138-0.791c-9.486,0-17.128,7.642-17.128,17.128 c0,1.186,0.132,2.372,0.395,3.426C6.719,34.783,0,42.424,0,51.515C0,61.66,8.169,69.829,18.314,69.829h63.373 C91.831,69.829,100,61.66,100,51.515C99.868,42.556,93.281,35.046,84.717,33.597z" fill="#bddeff" transform="scale(0.7150000000000002)"></path>
</g><g transform="translate(397.98 278.348)">
  <animateTransform attributeName="transform" type="translate" keyTimes="0;1" values="-100 278.34837015604523;1920 278.34837015604523" dur="66.66666666666667s" repeatCount="indefinite" begin="-57.17983128830254s"></animateTransform>
  <path d="M84.717,33.597c0.791-2.503,1.186-5.138,1.186-7.773C85.903,11.594,74.308,0,60.079,0 c-9.881,0-18.445,5.534-22.793,13.702c-1.581-0.527-3.426-0.791-5.138-0.791c-9.486,0-17.128,7.642-17.128,17.128 c0,1.186,0.132,2.372,0.395,3.426C6.719,34.783,0,42.424,0,51.515C0,61.66,8.169,69.829,18.314,69.829h63.373 C91.831,69.829,100,61.66,100,51.515C99.868,42.556,93.281,35.046,84.717,33.597z" fill="#bddeff" transform="scale(0.7150000000000002)"></path>
</g><g transform="translate(888.846 511.932)">
  <animateTransform attributeName="transform" type="translate" keyTimes="0;1" values="-100 511.9315414619205;1920 511.9315414619205" dur="66.66666666666667s" repeatCount="indefinite" begin="-6.713390617587342s"></animateTransform>
  <path d="M84.717,33.597c0.791-2.503,1.186-5.138,1.186-7.773C85.903,11.594,74.308,0,60.079,0 c-9.881,0-18.445,5.534-22.793,13.702c-1.581-0.527-3.426-0.791-5.138-0.791c-9.486,0-17.128,7.642-17.128,17.128 c0,1.186,0.132,2.372,0.395,3.426C6.719,34.783,0,42.424,0,51.515C0,61.66,8.169,69.829,18.314,69.829h63.373 C91.831,69.829,100,61.66,100,51.515C99.868,42.556,93.281,35.046,84.717,33.597z" fill="#bddeff" transform="scale(0.7150000000000002)"></path>
</g><g transform="translate(0.0311203 286.944)">
  <animateTransform attributeName="transform" type="translate" keyTimes="0;1" values="-100 286.9436026319671;1920 286.9436026319671" dur="66.66666666666667s" repeatCount="indefinite" begin="-44.04622049705265s"></animateTransform>
  <path d="M84.717,33.597c0.791-2.503,1.186-5.138,1.186-7.773C85.903,11.594,74.308,0,60.079,0 c-9.881,0-18.445,5.534-22.793,13.702c-1.581-0.527-3.426-0.791-5.138-0.791c-9.486,0-17.128,7.642-17.128,17.128 c0,1.186,0.132,2.372,0.395,3.426C6.719,34.783,0,42.424,0,51.515C0,61.66,8.169,69.829,18.314,69.829h63.373 C91.831,69.829,100,61.66,100,51.515C99.868,42.556,93.281,35.046,84.717,33.597z" fill="#bddeff" transform="scale(0.7150000000000002)"></path>
</g><g transform="translate(403.163 448.029)">
  <animateTransform attributeName="transform" type="translate" keyTimes="0;1" values="-100 448.0285516065366;1920 448.0285516065366" dur="33.333333333333336s" repeatCount="indefinite" begin="-49.04788404628179s"></animateTransform>
  <path d="M84.717,33.597c0.791-2.503,1.186-5.138,1.186-7.773C85.903,11.594,74.308,0,60.079,0 c-9.881,0-18.445,5.534-22.793,13.702c-1.581-0.527-3.426-0.791-5.138-0.791c-9.486,0-17.128,7.642-17.128,17.128 c0,1.186,0.132,2.372,0.395,3.426C6.719,34.783,0,42.424,0,51.515C0,61.66,8.169,69.829,18.314,69.829h63.373 C91.831,69.829,100,61.66,100,51.515C99.868,42.556,93.281,35.046,84.717,33.597z" fill="#ffffff" transform="scale(0.9100000000000001)"></path>
</g><g transform="translate(1689.67 950.064)">
  <animateTransform attributeName="transform" type="translate" keyTimes="0;1" values="-100 950.06363475339;1920 950.06363475339" dur="33.333333333333336s" repeatCount="indefinite" begin="-36.944053411410124s"></animateTransform>
  <path d="M84.717,33.597c0.791-2.503,1.186-5.138,1.186-7.773C85.903,11.594,74.308,0,60.079,0 c-9.881,0-18.445,5.534-22.793,13.702c-1.581-0.527-3.426-0.791-5.138-0.791c-9.486,0-17.128,7.642-17.128,17.128 c0,1.186,0.132,2.372,0.395,3.426C6.719,34.783,0,42.424,0,51.515C0,61.66,8.169,69.829,18.314,69.829h63.373 C91.831,69.829,100,61.66,100,51.515C99.868,42.556,93.281,35.046,84.717,33.597z" fill="#ffffff" transform="scale(0.9100000000000001)"></path>
</g><g transform="translate(460.112 919.103)">
  <animateTransform attributeName="transform" type="translate" keyTimes="0;1" values="-100 919.1028148483903;1920 919.1028148483903" dur="33.333333333333336s" repeatCount="indefinite" begin="-49.987635855105125s"></animateTransform>
  <path d="M84.717,33.597c0.791-2.503,1.186-5.138,1.186-7.773C85.903,11.594,74.308,0,60.079,0 c-9.881,0-18.445,5.534-22.793,13.702c-1.581-0.527-3.426-0.791-5.138-0.791c-9.486,0-17.128,7.642-17.128,17.128 c0,1.186,0.132,2.372,0.395,3.426C6.719,34.783,0,42.424,0,51.515C0,61.66,8.169,69.829,18.314,69.829h63.373 C91.831,69.829,100,61.66,100,51.515C99.868,42.556,93.281,35.046,84.717,33.597z" fill="#ffffff" transform="scale(0.9100000000000001)"></path>
</g><g transform="translate(1785.43 89.7699)">
  <animateTransform attributeName="transform" type="translate" keyTimes="0;1" values="-100 89.76990649313753;1920 89.76990649313753" dur="33.333333333333336s" repeatCount="indefinite" begin="-38.524277251526584s"></animateTransform>
  <path d="M84.717,33.597c0.791-2.503,1.186-5.138,1.186-7.773C85.903,11.594,74.308,0,60.079,0 c-9.881,0-18.445,5.534-22.793,13.702c-1.581-0.527-3.426-0.791-5.138-0.791c-9.486,0-17.128,7.642-17.128,17.128 c0,1.186,0.132,2.372,0.395,3.426C6.719,34.783,0,42.424,0,51.515C0,61.66,8.169,69.829,18.314,69.829h63.373 C91.831,69.829,100,61.66,100,51.515C99.868,42.556,93.281,35.046,84.717,33.597z" fill="#ffffff" transform="scale(0.9100000000000001)"></path>
</g><g transform="translate(633.132 874.663)">
  <animateTransform attributeName="transform" type="translate" keyTimes="0;1" values="-100 874.6633072043388;1920 874.6633072043388" dur="33.333333333333336s" repeatCount="indefinite" begin="-19.50941363464338s"></animateTransform>
  <path d="M84.717,33.597c0.791-2.503,1.186-5.138,1.186-7.773C85.903,11.594,74.308,0,60.079,0 c-9.881,0-18.445,5.534-22.793,13.702c-1.581-0.527-3.426-0.791-5.138-0.791c-9.486,0-17.128,7.642-17.128,17.128 c0,1.186,0.132,2.372,0.395,3.426C6.719,34.783,0,42.424,0,51.515C0,61.66,8.169,69.829,18.314,69.829h63.373 C91.831,69.829,100,61.66,100,51.515C99.868,42.556,93.281,35.046,84.717,33.597z" fill="#ffffff" transform="scale(0.9100000000000001)"></path>
</g><g transform="translate(1402.74 434.061)">
  <animateTransform attributeName="transform" type="translate" keyTimes="0;1" values="-100 434.0606054461365;1920 434.0606054461365" dur="33.333333333333336s" repeatCount="indefinite" begin="-65.54260087202569s"></animateTransform>
  <path d="M84.717,33.597c0.791-2.503,1.186-5.138,1.186-7.773C85.903,11.594,74.308,0,60.079,0 c-9.881,0-18.445,5.534-22.793,13.702c-1.581-0.527-3.426-0.791-5.138-0.791c-9.486,0-17.128,7.642-17.128,17.128 c0,1.186,0.132,2.372,0.395,3.426C6.719,34.783,0,42.424,0,51.515C0,61.66,8.169,69.829,18.314,69.829h63.373 C91.831,69.829,100,61.66,100,51.515C99.868,42.556,93.281,35.046,84.717,33.597z" fill="#ffffff" transform="scale(0.9100000000000001)"></path>
</g><g transform="translate(658.331 914.872)">
  <animateTransform attributeName="transform" type="translate" keyTimes="0;1" values="-100 914.8717482238533;1920 914.8717482238533" dur="33.333333333333336s" repeatCount="indefinite" begin="-53.25858489137009s"></animateTransform>
  <path d="M84.717,33.597c0.791-2.503,1.186-5.138,1.186-7.773C85.903,11.594,74.308,0,60.079,0 c-9.881,0-18.445,5.534-22.793,13.702c-1.581-0.527-3.426-0.791-5.138-0.791c-9.486,0-17.128,7.642-17.128,17.128 c0,1.186,0.132,2.372,0.395,3.426C6.719,34.783,0,42.424,0,51.515C0,61.66,8.169,69.829,18.314,69.829h63.373 C91.831,69.829,100,61.66,100,51.515C99.868,42.556,93.281,35.046,84.717,33.597z" fill="#ffffff" transform="scale(0.9100000000000001)"></path>
</g><g transform="translate(532.224 582.6)">
  <animateTransform attributeName="transform" type="translate" keyTimes="0;1" values="-100 582.6004737315577;1920 582.6004737315577" dur="33.333333333333336s" repeatCount="indefinite" begin="-17.844274585553112s"></animateTransform>
  <path d="M84.717,33.597c0.791-2.503,1.186-5.138,1.186-7.773C85.903,11.594,74.308,0,60.079,0 c-9.881,0-18.445,5.534-22.793,13.702c-1.581-0.527-3.426-0.791-5.138-0.791c-9.486,0-17.128,7.642-17.128,17.128 c0,1.186,0.132,2.372,0.395,3.426C6.719,34.783,0,42.424,0,51.515C0,61.66,8.169,69.829,18.314,69.829h63.373 C91.831,69.829,100,61.66,100,51.515C99.868,42.556,93.281,35.046,84.717,33.597z" fill="#ffffff" transform="scale(0.9100000000000001)"></path>
</g><g transform="translate(-48.3563 457.498)">
  <animateTransform attributeName="transform" type="translate" keyTimes="0;1" values="-100 457.4979004264201;1920 457.4979004264201" dur="33.333333333333336s" repeatCount="indefinite" begin="-8.263736128635973s"></animateTransform>
  <path d="M84.717,33.597c0.791-2.503,1.186-5.138,1.186-7.773C85.903,11.594,74.308,0,60.079,0 c-9.881,0-18.445,5.534-22.793,13.702c-1.581-0.527-3.426-0.791-5.138-0.791c-9.486,0-17.128,7.642-17.128,17.128 c0,1.186,0.132,2.372,0.395,3.426C6.719,34.783,0,42.424,0,51.515C0,61.66,8.169,69.829,18.314,69.829h63.373 C91.831,69.829,100,61.66,100,51.515C99.868,42.556,93.281,35.046,84.717,33.597z" fill="#ffffff" transform="scale(0.9100000000000001)"></path>
</g><g transform="translate(1018.03 446.643)">
  <animateTransform attributeName="transform" type="translate" keyTimes="0;1" values="-100 446.6426024934534;1920 446.6426024934534" dur="33.333333333333336s" repeatCount="indefinite" begin="-25.860824056465727s"></animateTransform>
  <path d="M84.717,33.597c0.791-2.503,1.186-5.138,1.186-7.773C85.903,11.594,74.308,0,60.079,0 c-9.881,0-18.445,5.534-22.793,13.702c-1.581-0.527-3.426-0.791-5.138-0.791c-9.486,0-17.128,7.642-17.128,17.128 c0,1.186,0.132,2.372,0.395,3.426C6.719,34.783,0,42.424,0,51.515C0,61.66,8.169,69.829,18.314,69.829h63.373 C91.831,69.829,100,61.66,100,51.515C99.868,42.556,93.281,35.046,84.717,33.597z" fill="#ffffff" transform="scale(0.9100000000000001)"></path>
</g><g transform="translate(438.49 645.613)">
  <animateTransform attributeName="transform" type="translate" keyTimes="0;1" values="-100 645.6126490092058;1920 645.6126490092058" dur="33.333333333333336s" repeatCount="indefinite" begin="-16.297512000961145s"></animateTransform>
  <path d="M84.717,33.597c0.791-2.503,1.186-5.138,1.186-7.773C85.903,11.594,74.308,0,60.079,0 c-9.881,0-18.445,5.534-22.793,13.702c-1.581-0.527-3.426-0.791-5.138-0.791c-9.486,0-17.128,7.642-17.128,17.128 c0,1.186,0.132,2.372,0.395,3.426C6.719,34.783,0,42.424,0,51.515C0,61.66,8.169,69.829,18.314,69.829h63.373 C91.831,69.829,100,61.66,100,51.515C99.868,42.556,93.281,35.046,84.717,33.597z" fill="#ffffff" transform="scale(0.9100000000000001)"></path>
</g><g transform="translate(417.258 412.451)">
  <animateTransform attributeName="transform" type="translate" keyTimes="0;1" values="-100 412.450500184205;1920 412.450500184205" dur="22.222222222222225s" repeatCount="indefinite" begin="-1.9908238004285799s"></animateTransform>
  <path d="M84.717,33.597c0.791-2.503,1.186-5.138,1.186-7.773C85.903,11.594,74.308,0,60.079,0 c-9.881,0-18.445,5.534-22.793,13.702c-1.581-0.527-3.426-0.791-5.138-0.791c-9.486,0-17.128,7.642-17.128,17.128 c0,1.186,0.132,2.372,0.395,3.426C6.719,34.783,0,42.424,0,51.515C0,61.66,8.169,69.829,18.314,69.829h63.373 C91.831,69.829,100,61.66,100,51.515C99.868,42.556,93.281,35.046,84.717,33.597z" fill="#f1f2f3" transform="scale(1.1050000000000002)"></path>
</g><g transform="translate(1339.12 385.955)">
  <animateTransform attributeName="transform" type="translate" keyTimes="0;1" values="-100 385.95521258696556;1920 385.95521258696556" dur="22.222222222222225s" repeatCount="indefinite" begin="-34.35458063722905s"></animateTransform>
  <path d="M84.717,33.597c0.791-2.503,1.186-5.138,1.186-7.773C85.903,11.594,74.308,0,60.079,0 c-9.881,0-18.445,5.534-22.793,13.702c-1.581-0.527-3.426-0.791-5.138-0.791c-9.486,0-17.128,7.642-17.128,17.128 c0,1.186,0.132,2.372,0.395,3.426C6.719,34.783,0,42.424,0,51.515C0,61.66,8.169,69.829,18.314,69.829h63.373 C91.831,69.829,100,61.66,100,51.515C99.868,42.556,93.281,35.046,84.717,33.597z" fill="#f1f2f3" transform="scale(1.1050000000000002)"></path>
</g><g transform="translate(462.704 497.61)">
  <animateTransform attributeName="transform" type="translate" keyTimes="0;1" values="-100 497.6101432020338;1920 497.6101432020338" dur="22.222222222222225s" repeatCount="indefinite" begin="-24.713004734840816s"></animateTransform>
  <path d="M84.717,33.597c0.791-2.503,1.186-5.138,1.186-7.773C85.903,11.594,74.308,0,60.079,0 c-9.881,0-18.445,5.534-22.793,13.702c-1.581-0.527-3.426-0.791-5.138-0.791c-9.486,0-17.128,7.642-17.128,17.128 c0,1.186,0.132,2.372,0.395,3.426C6.719,34.783,0,42.424,0,51.515C0,61.66,8.169,69.829,18.314,69.829h63.373 C91.831,69.829,100,61.66,100,51.515C99.868,42.556,93.281,35.046,84.717,33.597z" fill="#f1f2f3" transform="scale(1.1050000000000002)"></path>
</g><g transform="translate(256.164 528.618)">
  <animateTransform attributeName="transform" type="translate" keyTimes="0;1" values="-100 528.6177334495807;1920 528.6177334495807" dur="22.222222222222225s" repeatCount="indefinite" begin="-0.21861887127396787s"></animateTransform>
  <path d="M84.717,33.597c0.791-2.503,1.186-5.138,1.186-7.773C85.903,11.594,74.308,0,60.079,0 c-9.881,0-18.445,5.534-22.793,13.702c-1.581-0.527-3.426-0.791-5.138-0.791c-9.486,0-17.128,7.642-17.128,17.128 c0,1.186,0.132,2.372,0.395,3.426C6.719,34.783,0,42.424,0,51.515C0,61.66,8.169,69.829,18.314,69.829h63.373 C91.831,69.829,100,61.66,100,51.515C99.868,42.556,93.281,35.046,84.717,33.597z" fill="#f1f2f3" transform="scale(1.1050000000000002)"></path>
</g><g transform="translate(-3.25431 321.805)">
  <animateTransform attributeName="transform" type="translate" keyTimes="0;1" values="-100 321.8047353477681;1920 321.8047353477681" dur="22.222222222222225s" repeatCount="indefinite" begin="-64.03139451397074s"></animateTransform>
  <path d="M84.717,33.597c0.791-2.503,1.186-5.138,1.186-7.773C85.903,11.594,74.308,0,60.079,0 c-9.881,0-18.445,5.534-22.793,13.702c-1.581-0.527-3.426-0.791-5.138-0.791c-9.486,0-17.128,7.642-17.128,17.128 c0,1.186,0.132,2.372,0.395,3.426C6.719,34.783,0,42.424,0,51.515C0,61.66,8.169,69.829,18.314,69.829h63.373 C91.831,69.829,100,61.66,100,51.515C99.868,42.556,93.281,35.046,84.717,33.597z" fill="#f1f2f3" transform="scale(1.1050000000000002)"></path>
</g><g transform="translate(172.626 103.048)">
  <animateTransform attributeName="transform" type="translate" keyTimes="0;1" values="-100 103.04777071487162;1920 103.04777071487162" dur="22.222222222222225s" repeatCount="indefinite" begin="-43.74405132527041s"></animateTransform>
  <path d="M84.717,33.597c0.791-2.503,1.186-5.138,1.186-7.773C85.903,11.594,74.308,0,60.079,0 c-9.881,0-18.445,5.534-22.793,13.702c-1.581-0.527-3.426-0.791-5.138-0.791c-9.486,0-17.128,7.642-17.128,17.128 c0,1.186,0.132,2.372,0.395,3.426C6.719,34.783,0,42.424,0,51.515C0,61.66,8.169,69.829,18.314,69.829h63.373 C91.831,69.829,100,61.66,100,51.515C99.868,42.556,93.281,35.046,84.717,33.597z" fill="#f1f2f3" transform="scale(1.1050000000000002)"></path>
</g><g transform="translate(43.0194 381.167)">
  <animateTransform attributeName="transform" type="translate" keyTimes="0;1" values="-100 381.1666105307865;1920 381.1666105307865" dur="22.222222222222225s" repeatCount="indefinite" begin="-64.54045602512558s"></animateTransform>
  <path d="M84.717,33.597c0.791-2.503,1.186-5.138,1.186-7.773C85.903,11.594,74.308,0,60.079,0 c-9.881,0-18.445,5.534-22.793,13.702c-1.581-0.527-3.426-0.791-5.138-0.791c-9.486,0-17.128,7.642-17.128,17.128 c0,1.186,0.132,2.372,0.395,3.426C6.719,34.783,0,42.424,0,51.515C0,61.66,8.169,69.829,18.314,69.829h63.373 C91.831,69.829,100,61.66,100,51.515C99.868,42.556,93.281,35.046,84.717,33.597z" fill="#f1f2f3" transform="scale(1.1050000000000002)"></path>
</g><g transform="translate(1593.11 751.131)">
  <animateTransform attributeName="transform" type="translate" keyTimes="0;1" values="-100 751.1306111551556;1920 751.1306111551556" dur="22.222222222222225s" repeatCount="indefinite" begin="-14.92650559261053s"></animateTransform>
  <path d="M84.717,33.597c0.791-2.503,1.186-5.138,1.186-7.773C85.903,11.594,74.308,0,60.079,0 c-9.881,0-18.445,5.534-22.793,13.702c-1.581-0.527-3.426-0.791-5.138-0.791c-9.486,0-17.128,7.642-17.128,17.128 c0,1.186,0.132,2.372,0.395,3.426C6.719,34.783,0,42.424,0,51.515C0,61.66,8.169,69.829,18.314,69.829h63.373 C91.831,69.829,100,61.66,100,51.515C99.868,42.556,93.281,35.046,84.717,33.597z" fill="#f1f2f3" transform="scale(1.1050000000000002)"></path>
</g><g transform="translate(1536.19 241.194)">
  <animateTransform attributeName="transform" type="translate" keyTimes="0;1" values="-100 241.19366709657658;1920 241.19366709657658" dur="22.222222222222225s" repeatCount="indefinite" begin="-58.74476022455457s"></animateTransform>
  <path d="M84.717,33.597c0.791-2.503,1.186-5.138,1.186-7.773C85.903,11.594,74.308,0,60.079,0 c-9.881,0-18.445,5.534-22.793,13.702c-1.581-0.527-3.426-0.791-5.138-0.791c-9.486,0-17.128,7.642-17.128,17.128 c0,1.186,0.132,2.372,0.395,3.426C6.719,34.783,0,42.424,0,51.515C0,61.66,8.169,69.829,18.314,69.829h63.373 C91.831,69.829,100,61.66,100,51.515C99.868,42.556,93.281,35.046,84.717,33.597z" fill="#f1f2f3" transform="scale(1.1050000000000002)"></path>
</g><g transform="translate(748.394 656.038)">
  <animateTransform attributeName="transform" type="translate" keyTimes="0;1" values="-100 656.0375389042525;1920 656.0375389042525" dur="22.222222222222225s" repeatCount="indefinite" begin="-27.855913569635817s"></animateTransform>
  <path d="M84.717,33.597c0.791-2.503,1.186-5.138,1.186-7.773C85.903,11.594,74.308,0,60.079,0 c-9.881,0-18.445,5.534-22.793,13.702c-1.581-0.527-3.426-0.791-5.138-0.791c-9.486,0-17.128,7.642-17.128,17.128 c0,1.186,0.132,2.372,0.395,3.426C6.719,34.783,0,42.424,0,51.515C0,61.66,8.169,69.829,18.314,69.829h63.373 C91.831,69.829,100,61.66,100,51.515C99.868,42.556,93.281,35.046,84.717,33.597z" fill="#f1f2f3" transform="scale(1.1050000000000002)"></path>
</g><g transform="translate(767.706 668.729)">
  <animateTransform attributeName="transform" type="translate" keyTimes="0;1" values="-100 668.7286159445766;1920 668.7286159445766" dur="22.222222222222225s" repeatCount="indefinite" begin="-50.29058277691246s"></animateTransform>
  <path d="M84.717,33.597c0.791-2.503,1.186-5.138,1.186-7.773C85.903,11.594,74.308,0,60.079,0 c-9.881,0-18.445,5.534-22.793,13.702c-1.581-0.527-3.426-0.791-5.138-0.791c-9.486,0-17.128,7.642-17.128,17.128 c0,1.186,0.132,2.372,0.395,3.426C6.719,34.783,0,42.424,0,51.515C0,61.66,8.169,69.829,18.314,69.829h63.373 C91.831,69.829,100,61.66,100,51.515C99.868,42.556,93.281,35.046,84.717,33.597z" fill="#f1f2f3" transform="scale(1.1050000000000002)"></path>
</g><g transform="translate(83.184 610.847)">
  <animateTransform attributeName="transform" type="translate" keyTimes="0;1" values="-100 610.8465311151485;1920 610.8465311151485" dur="16.666666666666668s" repeatCount="indefinite" begin="-58.92294456053531s"></animateTransform>
  <path d="M84.717,33.597c0.791-2.503,1.186-5.138,1.186-7.773C85.903,11.594,74.308,0,60.079,0 c-9.881,0-18.445,5.534-22.793,13.702c-1.581-0.527-3.426-0.791-5.138-0.791c-9.486,0-17.128,7.642-17.128,17.128 c0,1.186,0.132,2.372,0.395,3.426C6.719,34.783,0,42.424,0,51.515C0,61.66,8.169,69.829,18.314,69.829h63.373 C91.831,69.829,100,61.66,100,51.515C99.868,42.556,93.281,35.046,84.717,33.597z" fill="#bddeff" transform="scale(1.3000000000000003)"></path>
</g><g transform="translate(1147.22 451.854)">
  <animateTransform attributeName="transform" type="translate" keyTimes="0;1" values="-100 451.8536011100985;1920 451.8536011100985" dur="16.666666666666668s" repeatCount="indefinite" begin="-51.03542330847062s"></animateTransform>
  <path d="M84.717,33.597c0.791-2.503,1.186-5.138,1.186-7.773C85.903,11.594,74.308,0,60.079,0 c-9.881,0-18.445,5.534-22.793,13.702c-1.581-0.527-3.426-0.791-5.138-0.791c-9.486,0-17.128,7.642-17.128,17.128 c0,1.186,0.132,2.372,0.395,3.426C6.719,34.783,0,42.424,0,51.515C0,61.66,8.169,69.829,18.314,69.829h63.373 C91.831,69.829,100,61.66,100,51.515C99.868,42.556,93.281,35.046,84.717,33.597z" fill="#bddeff" transform="scale(1.3000000000000003)"></path>
</g><g transform="translate(1742.66 901.102)">
  <animateTransform attributeName="transform" type="translate" keyTimes="0;1" values="-100 901.1018041491602;1920 901.1018041491602" dur="16.666666666666668s" repeatCount="indefinite" begin="-55.94833545027358s"></animateTransform>
  <path d="M84.717,33.597c0.791-2.503,1.186-5.138,1.186-7.773C85.903,11.594,74.308,0,60.079,0 c-9.881,0-18.445,5.534-22.793,13.702c-1.581-0.527-3.426-0.791-5.138-0.791c-9.486,0-17.128,7.642-17.128,17.128 c0,1.186,0.132,2.372,0.395,3.426C6.719,34.783,0,42.424,0,51.515C0,61.66,8.169,69.829,18.314,69.829h63.373 C91.831,69.829,100,61.66,100,51.515C99.868,42.556,93.281,35.046,84.717,33.597z" fill="#bddeff" transform="scale(1.3000000000000003)"></path>
</g><g transform="translate(315.276 335.041)">
  <animateTransform attributeName="transform" type="translate" keyTimes="0;1" values="-100 335.0414564668065;1920 335.0414564668065" dur="16.666666666666668s" repeatCount="indefinite" begin="-10.837898464658435s"></animateTransform>
  <path d="M84.717,33.597c0.791-2.503,1.186-5.138,1.186-7.773C85.903,11.594,74.308,0,60.079,0 c-9.881,0-18.445,5.534-22.793,13.702c-1.581-0.527-3.426-0.791-5.138-0.791c-9.486,0-17.128,7.642-17.128,17.128 c0,1.186,0.132,2.372,0.395,3.426C6.719,34.783,0,42.424,0,51.515C0,61.66,8.169,69.829,18.314,69.829h63.373 C91.831,69.829,100,61.66,100,51.515C99.868,42.556,93.281,35.046,84.717,33.597z" fill="#bddeff" transform="scale(1.3000000000000003)"></path>
</g><g transform="translate(1779.41 521.985)">
  <animateTransform attributeName="transform" type="translate" keyTimes="0;1" values="-100 521.9848542928338;1920 521.9848542928338" dur="16.666666666666668s" repeatCount="indefinite" begin="-56.25150684042884s"></animateTransform>
  <path d="M84.717,33.597c0.791-2.503,1.186-5.138,1.186-7.773C85.903,11.594,74.308,0,60.079,0 c-9.881,0-18.445,5.534-22.793,13.702c-1.581-0.527-3.426-0.791-5.138-0.791c-9.486,0-17.128,7.642-17.128,17.128 c0,1.186,0.132,2.372,0.395,3.426C6.719,34.783,0,42.424,0,51.515C0,61.66,8.169,69.829,18.314,69.829h63.373 C91.831,69.829,100,61.66,100,51.515C99.868,42.556,93.281,35.046,84.717,33.597z" fill="#bddeff" transform="scale(1.3000000000000003)"></path>
</g><g transform="translate(603.881 602.855)">
  <animateTransform attributeName="transform" type="translate" keyTimes="0;1" values="-100 602.8549514205811;1920 602.8549514205811" dur="16.666666666666668s" repeatCount="indefinite" begin="-63.21912068012204s"></animateTransform>
  <path d="M84.717,33.597c0.791-2.503,1.186-5.138,1.186-7.773C85.903,11.594,74.308,0,60.079,0 c-9.881,0-18.445,5.534-22.793,13.702c-1.581-0.527-3.426-0.791-5.138-0.791c-9.486,0-17.128,7.642-17.128,17.128 c0,1.186,0.132,2.372,0.395,3.426C6.719,34.783,0,42.424,0,51.515C0,61.66,8.169,69.829,18.314,69.829h63.373 C91.831,69.829,100,61.66,100,51.515C99.868,42.556,93.281,35.046,84.717,33.597z" fill="#bddeff" transform="scale(1.3000000000000003)"></path>
</g><g transform="translate(30.5488 184.441)">
  <animateTransform attributeName="transform" type="translate" keyTimes="0;1" values="-100 184.44134882899806;1920 184.44134882899806" dur="16.666666666666668s" repeatCount="indefinite" begin="-58.488660244994186s"></animateTransform>
  <path d="M84.717,33.597c0.791-2.503,1.186-5.138,1.186-7.773C85.903,11.594,74.308,0,60.079,0 c-9.881,0-18.445,5.534-22.793,13.702c-1.581-0.527-3.426-0.791-5.138-0.791c-9.486,0-17.128,7.642-17.128,17.128 c0,1.186,0.132,2.372,0.395,3.426C6.719,34.783,0,42.424,0,51.515C0,61.66,8.169,69.829,18.314,69.829h63.373 C91.831,69.829,100,61.66,100,51.515C99.868,42.556,93.281,35.046,84.717,33.597z" fill="#bddeff" transform="scale(1.3000000000000003)"></path>
</g><g transform="translate(1114.17 390.245)">
  <animateTransform attributeName="transform" type="translate" keyTimes="0;1" values="-100 390.2454210058123;1920 390.2454210058123" dur="16.666666666666668s" repeatCount="indefinite" begin="-34.09612445946016s"></animateTransform>
  <path d="M84.717,33.597c0.791-2.503,1.186-5.138,1.186-7.773C85.903,11.594,74.308,0,60.079,0 c-9.881,0-18.445,5.534-22.793,13.702c-1.581-0.527-3.426-0.791-5.138-0.791c-9.486,0-17.128,7.642-17.128,17.128 c0,1.186,0.132,2.372,0.395,3.426C6.719,34.783,0,42.424,0,51.515C0,61.66,8.169,69.829,18.314,69.829h63.373 C91.831,69.829,100,61.66,100,51.515C99.868,42.556,93.281,35.046,84.717,33.597z" fill="#bddeff" transform="scale(1.3000000000000003)"></path>
</g><g transform="translate(1229.41 358.208)">
  <animateTransform attributeName="transform" type="translate" keyTimes="0;1" values="-100 358.20787395467534;1920 358.20787395467534" dur="16.666666666666668s" repeatCount="indefinite" begin="-1.7136082413781544s"></animateTransform>
  <path d="M84.717,33.597c0.791-2.503,1.186-5.138,1.186-7.773C85.903,11.594,74.308,0,60.079,0 c-9.881,0-18.445,5.534-22.793,13.702c-1.581-0.527-3.426-0.791-5.138-0.791c-9.486,0-17.128,7.642-17.128,17.128 c0,1.186,0.132,2.372,0.395,3.426C6.719,34.783,0,42.424,0,51.515C0,61.66,8.169,69.829,18.314,69.829h63.373 C91.831,69.829,100,61.66,100,51.515C99.868,42.556,93.281,35.046,84.717,33.597z" fill="#bddeff" transform="scale(1.3000000000000003)"></path>
</g><g transform="translate(894.686 212.95)">
  <animateTransform attributeName="transform" type="translate" keyTimes="0;1" values="-100 212.94998054327678;1920 212.94998054327678" dur="16.666666666666668s" repeatCount="indefinite" begin="-32.28517510388707s"></animateTransform>
  <path d="M84.717,33.597c0.791-2.503,1.186-5.138,1.186-7.773C85.903,11.594,74.308,0,60.079,0 c-9.881,0-18.445,5.534-22.793,13.702c-1.581-0.527-3.426-0.791-5.138-0.791c-9.486,0-17.128,7.642-17.128,17.128 c0,1.186,0.132,2.372,0.395,3.426C6.719,34.783,0,42.424,0,51.515C0,61.66,8.169,69.829,18.314,69.829h63.373 C91.831,69.829,100,61.66,100,51.515C99.868,42.556,93.281,35.046,84.717,33.597z" fill="#bddeff" transform="scale(1.3000000000000003)"></path>
</g><g transform="translate(1399.79 701.213)">
  <animateTransform attributeName="transform" type="translate" keyTimes="0;1" values="-100 701.2127946127607;1920 701.2127946127607" dur="16.666666666666668s" repeatCount="indefinite" begin="-36.45272522753768s"></animateTransform>
  <path d="M84.717,33.597c0.791-2.503,1.186-5.138,1.186-7.773C85.903,11.594,74.308,0,60.079,0 c-9.881,0-18.445,5.534-22.793,13.702c-1.581-0.527-3.426-0.791-5.138-0.791c-9.486,0-17.128,7.642-17.128,17.128 c0,1.186,0.132,2.372,0.395,3.426C6.719,34.783,0,42.424,0,51.515C0,61.66,8.169,69.829,18.314,69.829h63.373 C91.831,69.829,100,61.66,100,51.515C99.868,42.556,93.281,35.046,84.717,33.597z" fill="#bddeff" transform="scale(1.3000000000000003)"></path>
</g><g transform="translate(1905.98 138.935)">
  <animateTransform attributeName="transform" type="translate" keyTimes="0;1" values="-100 138.93460851528;1920 138.93460851528" dur="16.666666666666668s" repeatCount="indefinite" begin="-7.295877210862431s"></animateTransform>
  <path d="M84.717,33.597c0.791-2.503,1.186-5.138,1.186-7.773C85.903,11.594,74.308,0,60.079,0 c-9.881,0-18.445,5.534-22.793,13.702c-1.581-0.527-3.426-0.791-5.138-0.791c-9.486,0-17.128,7.642-17.128,17.128 c0,1.186,0.132,2.372,0.395,3.426C6.719,34.783,0,42.424,0,51.515C0,61.66,8.169,69.829,18.314,69.829h63.373 C91.831,69.829,100,61.66,100,51.515C99.868,42.556,93.281,35.046,84.717,33.597z" fill="#bddeff" transform="scale(1.3000000000000003)"></path>
</g></g>
</svg>